<svg xmlns="http://www.w3.org/2000/svg" xmlns:xlink="http://www.w3.org/1999/xlink" width="500" zoomAndPan="magnify" viewBox="0 0 375 374.999991" height="500" preserveAspectRatio="xMidYMid meet" version="1.0"><path fill="#ffd773" d="M 284.832031 184.5 C 284.832031 186.070312 284.792969 187.636719 284.714844 189.203125 C 284.636719 190.769531 284.519531 192.332031 284.363281 193.894531 C 284.207031 195.453125 284.011719 197.011719 283.777344 198.5625 C 283.542969 200.113281 283.269531 201.660156 282.960938 203.195312 C 282.648438 204.734375 282.300781 206.265625 281.914062 207.785156 C 281.527344 209.308594 281.101562 210.820312 280.640625 212.320312 C 280.175781 213.820312 279.675781 215.308594 279.140625 216.789062 C 278.605469 218.265625 278.03125 219.726562 277.421875 221.175781 C 276.8125 222.625 276.167969 224.058594 275.484375 225.476562 C 274.804688 226.894531 274.089844 228.292969 273.339844 229.679688 C 272.585938 231.0625 271.800781 232.425781 270.984375 233.769531 C 270.164062 235.117188 269.3125 236.441406 268.425781 237.746094 C 267.542969 239.050781 266.625 240.332031 265.675781 241.589844 C 264.726562 242.851562 263.75 244.085938 262.738281 245.300781 C 261.726562 246.511719 260.6875 247.699219 259.617188 248.863281 C 258.546875 250.023438 257.449219 251.160156 256.324219 252.269531 C 255.195312 253.378906 254.042969 254.457031 252.863281 255.511719 C 251.683594 256.566406 250.476562 257.589844 249.246094 258.585938 C 248.015625 259.578125 246.757812 260.542969 245.480469 261.476562 C 244.199219 262.414062 242.898438 263.316406 241.574219 264.1875 C 240.25 265.058594 238.902344 265.898438 237.539062 266.703125 C 236.171875 267.511719 234.785156 268.28125 233.382812 269.023438 C 231.976562 269.761719 230.554688 270.464844 229.113281 271.136719 C 227.675781 271.808594 226.21875 272.441406 224.746094 273.042969 C 223.273438 273.644531 221.789062 274.207031 220.289062 274.738281 C 218.789062 275.265625 217.277344 275.757812 215.753906 276.210938 C 214.230469 276.667969 212.695312 277.085938 211.148438 277.464844 C 209.605469 277.847656 208.050781 278.191406 206.488281 278.496094 C 204.925781 278.804688 203.355469 279.070312 201.78125 279.300781 C 200.207031 279.53125 198.625 279.722656 197.039062 279.878906 C 195.453125 280.03125 193.867188 280.144531 192.277344 280.222656 C 190.683594 280.300781 189.09375 280.339844 187.5 280.339844 C 185.90625 280.339844 184.316406 280.300781 182.722656 280.222656 C 181.132812 280.144531 179.546875 280.03125 177.960938 279.878906 C 176.375 279.722656 174.792969 279.53125 173.21875 279.300781 C 171.644531 279.070312 170.074219 278.804688 168.511719 278.496094 C 166.949219 278.191406 165.394531 277.847656 163.851562 277.464844 C 162.304688 277.085938 160.769531 276.667969 159.246094 276.210938 C 157.722656 275.757812 156.210938 275.265625 154.710938 274.738281 C 153.210938 274.207031 151.726562 273.644531 150.253906 273.042969 C 148.78125 272.441406 147.324219 271.808594 145.886719 271.136719 C 144.445312 270.464844 143.023438 269.761719 141.617188 269.023438 C 140.214844 268.28125 138.828125 267.511719 137.460938 266.703125 C 136.097656 265.898438 134.75 265.058594 133.425781 264.1875 C 132.101562 263.316406 130.800781 262.414062 129.519531 261.476562 C 128.242188 260.542969 126.984375 259.578125 125.753906 258.585938 C 124.523438 257.589844 123.316406 256.566406 122.136719 255.511719 C 120.957031 254.457031 119.804688 253.378906 118.675781 252.269531 C 117.550781 251.160156 116.453125 250.023438 115.382812 248.863281 C 114.3125 247.699219 113.273438 246.511719 112.261719 245.300781 C 111.25 244.085938 110.273438 242.851562 109.324219 241.589844 C 108.375 240.332031 107.457031 239.050781 106.574219 237.746094 C 105.6875 236.441406 104.835938 235.117188 104.015625 233.769531 C 103.199219 232.425781 102.414062 231.0625 101.660156 229.679688 C 100.910156 228.292969 100.195312 226.894531 99.515625 225.476562 C 98.832031 224.058594 98.1875 222.625 97.578125 221.175781 C 96.96875 219.726562 96.394531 218.265625 95.859375 216.789062 C 95.324219 215.308594 94.824219 213.820312 94.359375 212.320312 C 93.898438 210.820312 93.472656 209.308594 93.085938 207.785156 C 92.699219 206.265625 92.351562 204.734375 92.039062 203.195312 C 91.730469 201.660156 91.457031 200.113281 91.222656 198.5625 C 90.988281 197.011719 90.792969 195.453125 90.636719 193.894531 C 90.480469 192.332031 90.363281 190.769531 90.285156 189.203125 C 90.207031 187.636719 90.167969 186.070312 90.167969 184.5 C 90.167969 182.929688 90.207031 181.363281 90.285156 179.796875 C 90.363281 178.230469 90.480469 176.667969 90.636719 175.105469 C 90.792969 173.546875 90.988281 171.988281 91.222656 170.4375 C 91.457031 168.886719 91.730469 167.339844 92.039062 165.804688 C 92.351562 164.265625 92.699219 162.734375 93.085938 161.214844 C 93.472656 159.691406 93.898438 158.179688 94.359375 156.679688 C 94.824219 155.179688 95.324219 153.691406 95.859375 152.210938 C 96.394531 150.734375 96.96875 149.273438 97.578125 147.824219 C 98.1875 146.375 98.832031 144.941406 99.515625 143.523438 C 100.195312 142.105469 100.910156 140.707031 101.660156 139.320312 C 102.414062 137.9375 103.199219 136.574219 104.015625 135.230469 C 104.835938 133.882812 105.6875 132.558594 106.574219 131.253906 C 107.457031 129.949219 108.375 128.667969 109.324219 127.410156 C 110.273438 126.148438 111.25 124.914062 112.261719 123.699219 C 113.273438 122.488281 114.3125 121.300781 115.382812 120.136719 C 116.453125 118.976562 117.550781 117.839844 118.675781 116.730469 C 119.804688 115.621094 120.957031 114.542969 122.136719 113.488281 C 123.316406 112.433594 124.523438 111.410156 125.753906 110.414062 C 126.984375 109.421875 128.242188 108.457031 129.519531 107.519531 C 130.800781 106.585938 132.101562 105.683594 133.425781 104.8125 C 134.75 103.941406 136.097656 103.101562 137.460938 102.296875 C 138.828125 101.488281 140.214844 100.71875 141.617188 99.976562 C 143.023438 99.238281 144.445312 98.535156 145.886719 97.863281 C 147.324219 97.191406 148.78125 96.554688 150.253906 95.957031 C 151.726562 95.355469 153.210938 94.792969 154.710938 94.261719 C 156.210938 93.734375 157.722656 93.242188 159.246094 92.789062 C 160.769531 92.332031 162.304688 91.914062 163.851562 91.535156 C 165.394531 91.152344 166.949219 90.808594 168.511719 90.503906 C 170.074219 90.195312 171.644531 89.929688 173.21875 89.699219 C 174.792969 89.46875 176.375 89.277344 177.960938 89.121094 C 179.546875 88.96875 181.132812 88.851562 182.722656 88.777344 C 184.316406 88.699219 185.90625 88.660156 187.5 88.660156 C 189.09375 88.660156 190.683594 88.699219 192.277344 88.777344 C 193.867188 88.851562 195.453125 88.96875 197.039062 89.121094 C 198.625 89.277344 200.207031 89.46875 201.78125 89.699219 C 203.355469 89.929688 204.925781 90.195312 206.488281 90.503906 C 208.050781 90.808594 209.605469 91.152344 211.148438 91.535156 C 212.695312 91.914062 214.230469 92.332031 215.753906 92.789062 C 217.277344 93.242188 218.789062 93.734375 220.289062 94.261719 C 221.789062 94.792969 223.273438 95.355469 224.746094 95.957031 C 226.21875 96.554688 227.675781 97.191406 229.113281 97.863281 C 230.554688 98.535156 231.976562 99.238281 233.382812 99.976562 C 234.785156 100.71875 236.171875 101.488281 237.539062 102.296875 C 238.902344 103.101562 240.25 103.941406 241.574219 104.8125 C 242.898438 105.683594 244.199219 106.585938 245.480469 107.519531 C 246.757812 108.457031 248.015625 109.421875 249.246094 110.414062 C 250.476562 111.410156 251.683594 112.433594 252.863281 113.488281 C 254.042969 114.542969 255.195312 115.621094 256.324219 116.730469 C 257.449219 117.839844 258.546875 118.976562 259.617188 120.136719 C 260.6875 121.300781 261.726562 122.488281 262.738281 123.699219 C 263.75 124.914062 264.726562 126.148438 265.675781 127.410156 C 266.625 128.667969 267.542969 129.949219 268.425781 131.253906 C 269.3125 132.558594 270.164062 133.882812 270.984375 135.230469 C 271.800781 136.574219 272.585938 137.9375 273.339844 139.320312 C 274.089844 140.707031 274.804688 142.105469 275.484375 143.523438 C 276.167969 144.941406 276.8125 146.375 277.421875 147.824219 C 278.03125 149.273438 278.605469 150.734375 279.140625 152.210938 C 279.675781 153.691406 280.175781 155.179688 280.640625 156.679688 C 281.101562 158.179688 281.527344 159.691406 281.914062 161.214844 C 282.300781 162.734375 282.648438 164.265625 282.960938 165.804688 C 283.269531 167.339844 283.542969 168.886719 283.777344 170.4375 C 284.011719 171.988281 284.207031 173.546875 284.363281 175.105469 C 284.519531 176.667969 284.636719 178.230469 284.714844 179.796875 C 284.792969 181.363281 284.832031 182.929688 284.832031 184.5 Z M 284.832031 184.5 " fill-opacity="1" fill-rule="nonzero"/><path fill="#d1a12a" d="M 187.5 64.902344 C 184.671875 64.902344 182.445312 62.679688 182.445312 59.847656 L 182.445312 5.054688 C 182.445312 2.222656 184.671875 0 187.5 0 C 190.328125 0 192.554688 2.222656 192.554688 5.054688 L 192.554688 59.847656 C 192.554688 62.578125 190.230469 64.902344 187.5 64.902344 Z M 192.554688 363.945312 L 192.554688 309.152344 C 192.554688 306.320312 190.328125 304.097656 187.5 304.097656 C 184.671875 304.097656 182.445312 306.320312 182.445312 309.152344 L 182.445312 363.945312 C 182.445312 366.777344 184.671875 369 187.5 369 C 190.328125 369 192.554688 366.777344 192.554688 363.945312 Z M 65.8125 184.5 C 65.8125 181.667969 63.589844 179.445312 60.757812 179.445312 L 5.167969 179.445312 C 2.339844 179.445312 0.117188 181.667969 0.117188 184.5 C 0.117188 187.332031 2.339844 189.554688 5.167969 189.554688 L 60.757812 189.554688 C 63.589844 189.554688 65.8125 187.332031 65.8125 184.5 Z M 374.882812 184.5 C 374.882812 181.667969 372.660156 179.445312 369.832031 179.445312 L 314.242188 179.445312 C 311.410156 179.445312 309.1875 181.667969 309.1875 184.5 C 309.1875 187.332031 311.410156 189.554688 314.242188 189.554688 L 369.832031 189.554688 C 372.660156 189.554688 374.882812 187.332031 374.882812 184.5 Z M 101.488281 99.882812 C 103.410156 97.859375 103.410156 94.726562 101.386719 92.703125 L 62.070312 53.984375 C 60.050781 52.0625 56.917969 52.0625 54.894531 54.085938 C 52.976562 56.109375 52.976562 59.242188 54.996094 61.265625 L 94.3125 99.984375 C 95.324219 100.996094 96.535156 101.398438 97.851562 101.398438 C 99.164062 101.398438 100.480469 100.894531 101.488281 99.882812 Z M 320.003906 315.015625 C 321.921875 312.992188 321.921875 309.859375 319.902344 307.835938 L 280.585938 269.117188 C 278.5625 267.195312 275.429688 267.195312 273.410156 269.21875 C 271.488281 271.242188 271.488281 274.375 273.511719 276.394531 L 312.828125 315.117188 C 313.835938 316.125 315.050781 316.53125 316.363281 316.53125 C 317.679688 316.53125 318.992188 316.027344 320.003906 315.015625 Z M 62.070312 315.015625 L 101.386719 276.296875 C 103.410156 274.375 103.410156 271.140625 101.488281 269.117188 C 99.570312 267.09375 96.335938 267.09375 94.3125 269.015625 L 54.996094 307.835938 C 52.976562 309.757812 52.976562 312.992188 54.894531 315.015625 C 55.90625 316.027344 57.21875 316.53125 58.535156 316.53125 C 59.847656 316.53125 61.0625 316.027344 62.070312 315.015625 Z M 280.585938 99.984375 L 319.902344 61.265625 C 321.921875 59.34375 321.921875 56.109375 320.003906 54.085938 C 318.082031 52.0625 314.847656 52.0625 312.828125 53.984375 L 273.511719 92.703125 C 271.488281 94.625 271.488281 97.859375 273.410156 99.882812 C 274.421875 100.894531 275.734375 101.398438 277.046875 101.398438 C 278.363281 101.398438 279.675781 100.894531 280.585938 99.984375 Z M 140.804688 73.699219 C 143.332031 72.585938 144.546875 69.65625 143.535156 67.128906 L 133.628906 43.574219 C 132.519531 41.046875 129.585938 39.832031 126.957031 40.84375 C 124.433594 41.953125 123.21875 44.886719 124.230469 47.414062 L 134.136719 70.96875 C 134.945312 72.890625 136.863281 74.101562 138.785156 74.101562 C 139.59375 74.101562 140.199219 74.003906 140.804688 73.699219 Z M 247.941406 328.257812 C 250.464844 327.144531 251.679688 324.214844 250.667969 321.6875 L 240.765625 298.132812 C 239.652344 295.605469 236.722656 294.390625 234.09375 295.402344 C 231.566406 296.515625 230.355469 299.445312 231.363281 301.972656 L 241.269531 325.527344 C 242.078125 327.449219 244 328.664062 245.917969 328.664062 C 246.625 328.664062 247.332031 328.460938 247.941406 328.257812 Z M 48.125 246.773438 L 72.078125 236.96875 C 74.707031 235.957031 75.917969 232.925781 74.808594 230.398438 C 73.796875 227.769531 70.765625 226.554688 68.238281 227.667969 L 44.285156 237.472656 C 41.65625 238.484375 40.441406 241.519531 41.554688 244.046875 C 42.363281 245.964844 44.285156 247.179688 46.203125 247.179688 C 46.808594 247.179688 47.519531 247.078125 48.125 246.773438 Z M 306.660156 141.433594 L 330.617188 131.625 C 333.242188 130.617188 334.457031 127.582031 333.34375 125.054688 C 332.332031 122.425781 329.300781 121.214844 326.773438 122.324219 L 302.820312 132.132812 C 300.191406 133.144531 298.980469 136.175781 300.09375 138.703125 C 300.902344 140.625 302.820312 141.835938 304.742188 141.835938 C 305.449219 141.738281 306.054688 141.636719 306.660156 141.433594 Z M 240.765625 71.070312 L 250.667969 47.515625 C 251.78125 44.988281 250.566406 41.953125 247.941406 40.945312 C 245.3125 39.832031 242.382812 41.046875 241.269531 43.671875 L 231.363281 67.230469 C 230.253906 69.757812 231.464844 72.789062 234.09375 73.800781 C 234.699219 74.101562 235.40625 74.203125 236.011719 74.203125 C 238.035156 74.101562 239.957031 72.992188 240.765625 71.070312 Z M 133.628906 325.527344 L 143.535156 301.972656 C 144.644531 299.445312 143.433594 296.414062 140.804688 295.402344 C 138.179688 294.289062 135.246094 295.503906 134.136719 298.132812 L 124.230469 321.6875 C 123.117188 324.214844 124.332031 327.246094 126.957031 328.257812 C 127.566406 328.5625 128.273438 328.664062 128.878906 328.664062 C 130.902344 328.664062 132.820312 327.449219 133.628906 325.527344 Z M 74.90625 138.601562 C 75.917969 135.972656 74.707031 133.042969 72.179688 132.03125 L 48.226562 122.226562 C 45.597656 121.214844 42.667969 122.425781 41.65625 124.953125 C 40.644531 127.582031 41.859375 130.515625 44.382812 131.527344 L 68.339844 141.332031 C 68.945312 141.636719 69.652344 141.738281 70.257812 141.738281 C 72.179688 141.738281 74.097656 140.523438 74.90625 138.601562 Z M 333.445312 244.046875 C 334.457031 241.417969 333.242188 238.484375 330.714844 237.472656 L 306.660156 227.667969 C 304.035156 226.65625 301.101562 227.871094 300.09375 230.398438 C 299.082031 233.027344 300.292969 235.957031 302.820312 236.96875 L 326.773438 246.773438 C 327.382812 247.078125 328.089844 247.179688 328.695312 247.179688 C 330.714844 247.179688 332.636719 245.964844 333.445312 244.046875 Z M 333.445312 244.046875 " fill-opacity="1" fill-rule="nonzero"/></svg>